<?xml version="1.0" encoding="utf-8"?>
<!-- Generator: Adobe Illustrator 16.0.4, SVG Export Plug-In . SVG Version: 6.00 Build 0)  -->
<!DOCTYPE svg PUBLIC "-//W3C//DTD SVG 1.1//EN" "http://www.w3.org/Graphics/SVG/1.1/DTD/svg11.dtd">
<svg version="1.1" id="Layer_1" xmlns="http://www.w3.org/2000/svg" xmlns:xlink="http://www.w3.org/1999/xlink" x="0px" y="0px"
	 width="497.976px" height="497.975px" viewBox="0 0 497.976 497.975" enable-background="new 0 0 497.976 497.975"
	 xml:space="preserve">
<circle fill="#D4145A" cx="1458.021" cy="236.987" r="196"/>
<rect x="722.021" y="64.987" fill="#F2F2F2" width="367" height="368"/>
<path fill="#D4145A" d="M913.86,245.461c5.928,4.117,9.8,6.698,11.615,7.745c2.721,1.535,6.383,3.312,10.986,5.336l-13.184,26.578
	c-6.629-3.209-13.186-7.027-19.674-11.457c-6.487-4.432-11.023-7.76-13.604-9.994c-10.463,4.535-23.58,6.803-39.345,6.803
	c-23.301,0-41.684-6.07-55.146-18.209c-15.905-14.37-23.858-34.565-23.858-60.587c0-25.253,6.959-44.874,20.877-58.861
	c13.916-13.986,33.362-20.98,58.338-20.98c25.461,0,45.116,6.838,58.965,20.51c13.848,13.674,20.771,33.242,20.771,58.704
	C930.603,213.721,925.021,231.858,913.86,245.461z M877.55,221.185c3.767-6.766,5.65-16.881,5.65-30.346
	c0-15.487-2.878-26.543-8.633-33.171c-5.756-6.626-13.692-9.941-23.807-9.941c-9.418,0-17.057,3.385-22.916,10.15
	c-5.86,6.767-8.791,17.336-8.791,31.707c0,16.743,2.86,28.499,8.581,35.264c5.72,6.768,13.567,10.15,23.544,10.15
	c3.209,0,6.243-0.314,9.104-0.942c-3.977-3.836-10.255-7.464-18.835-10.883l7.43-17.057c4.186,0.769,7.445,1.71,9.783,2.825
	c2.336,1.117,6.889,4.047,13.656,8.79C873.921,218.848,875.665,220,877.55,221.185z"/>
<g>
	<path fill="#D4145A" d="M987.021,196.987v11h1.229c1.277,0,2.187-0.001,2.726-0.285c0.54-0.283,0.963-0.708,1.269-1.414
		s0.459-1.816,0.459-3.399c0-2.096-0.342-3.75-1.025-4.523c-0.684-0.773-1.817-1.379-3.4-1.379H987.021z"/>
	<path fill="#D4145A" d="M998.818,203.593c-0.056,1.727-0.281,3.118-0.699,4.129c-0.48,1.165-1.148,2.141-2.003,2.928
		c-0.855,0.788-1.772,1.425-2.753,1.686c-1.341,0.359-2.555,0.652-3.644,0.652h-8.699v-20h8.699c1.79,0,3.236,0.239,4.339,0.726
		c0.491,0.216,0.938,0.479,1.353,0.78l-1.312-3.505h-51.706l-0.748,2h6.518l7.433,20h-6.4l-0.989-3h-6.939l-0.965,3h-6.08
		l-12.721,33.784c2.834,1.92,4.833,3.204,5.955,3.852c2.586,1.459,6.193,3.201,10.695,5.181l2.877,1.259l-15.9,32.055l-2.675-1.296
		c-4.538-2.197-9.084-4.491-13.581-7.266l-24.137,64.432h48.4l7.478-26h53.816l7.675,26h49.64L998.818,203.593z M958.021,192.987
		h5.268l7.732,10.937v-10.937h5v20h-5.284l-7.716-11.087v11.087h-5V192.987z M950.909,285.987l16.755-55.147l16.933,55.147H950.909z
		"/>
	<polygon fill="#D4145A" points="942.594,204.987 946.938,204.987 944.754,197.876 	"/>
</g>
<path fill="#F2F2F2" d="M1457.86,245.461c5.928,4.117,9.8,6.698,11.615,7.745c2.721,1.535,6.383,3.312,10.986,5.336l-13.184,26.578
	c-6.629-3.209-13.186-7.027-19.674-11.457c-6.487-4.432-11.023-7.76-13.604-9.994c-10.463,4.535-23.58,6.803-39.345,6.803
	c-23.301,0-41.684-6.07-55.146-18.209c-15.905-14.37-23.858-34.565-23.858-60.587c0-25.253,6.959-44.874,20.877-58.861
	c13.916-13.986,33.362-20.98,58.338-20.98c25.461,0,45.116,6.838,58.965,20.51c13.848,13.674,20.771,33.242,20.771,58.704
	C1474.603,213.721,1469.021,231.858,1457.86,245.461z M1421.55,221.185c3.767-6.766,5.65-16.881,5.65-30.346
	c0-15.487-2.878-26.543-8.633-33.171c-5.756-6.626-13.692-9.941-23.807-9.941c-9.418,0-17.057,3.385-22.916,10.15
	c-5.86,6.767-8.791,17.336-8.791,31.707c0,16.743,2.86,28.499,8.581,35.264c5.72,6.768,13.567,10.15,23.544,10.15
	c3.209,0,6.243-0.314,9.104-0.942c-3.977-3.836-10.255-7.464-18.835-10.883l7.43-17.057c4.186,0.769,7.445,1.71,9.783,2.825
	c2.336,1.117,6.889,4.047,13.656,8.79C1417.921,218.848,1419.665,220,1421.55,221.185z"/>
<g>
	<path fill="#F2F2F2" d="M1531.021,196.987v11h1.229c1.277,0,2.187-0.001,2.726-0.285c0.54-0.283,0.963-0.708,1.269-1.414
		s0.459-1.816,0.459-3.399c0-2.096-0.342-3.75-1.025-4.523c-0.684-0.773-1.817-1.379-3.4-1.379H1531.021z"/>
	<path fill="#F2F2F2" d="M1542.818,203.593c-0.056,1.727-0.281,3.118-0.699,4.129c-0.48,1.165-1.148,2.141-2.003,2.928
		c-0.855,0.788-1.772,1.425-2.753,1.686c-1.341,0.359-2.555,0.652-3.644,0.652h-8.699v-20h8.699c1.79,0,3.236,0.239,4.339,0.726
		c0.491,0.216,0.938,0.479,1.353,0.78l-1.312-3.505h-51.706l-0.748,2h6.518l7.433,20h-6.4l-0.989-3h-6.939l-0.965,3h-6.08
		l-12.721,33.784c2.834,1.92,4.833,3.204,5.955,3.852c2.586,1.459,6.193,3.201,10.695,5.181l2.877,1.259l-15.9,32.055l-2.675-1.296
		c-4.538-2.197-9.084-4.491-13.581-7.266l-24.137,64.432h48.4l7.478-26h53.816l7.675,26h49.64L1542.818,203.593z M1502.021,192.987
		h5.268l7.732,10.937v-10.937h5v20h-5.284l-7.716-11.087v11.087h-5V192.987z M1494.909,285.987l16.755-55.147l16.933,55.147
		H1494.909z"/>
	<polygon fill="#F2F2F2" points="1486.594,204.987 1490.938,204.987 1488.754,197.876 	"/>
</g>
<text transform="matrix(1 0 0 1 1215.6299 751.8809)" font-family="'TrajanPro-Regular'" font-size="267.6838">QA</text>
<text transform="matrix(-4.371139e-08 -1 1 -4.371139e-08 1357.5527 722.5488)" font-family="'TrajanPro-Regular'" font-size="59.2803">AND</text>
<circle fill="#2F344F" cx="248.987" cy="248.987" r="230.988"/>
<g>
	<g>
		<path fill="#F2F2F2" d="M255.088,188.799c-4.123,0-6.185,2.575-6.185,7.724c0,2.765,1.071,6.75,3.215,11.952
			c6.374-3.74,9.561-8.009,9.561-12.805c0-1.871-0.65-3.483-1.953-4.838C258.424,189.477,256.877,188.799,255.088,188.799z"/>
		<path fill="#F2F2F2" d="M252.728,209.937c0.298,0.652,0.475,1.042,0.529,1.177l1.099,2.233c0.921,1.897,1.613,3.247,2.074,4.06
			c2.098-2.202,4.791-3.833,8.062-4.911c0.456-4.082,0.772-8.278,0.916-12.612C263.156,203.148,258.938,206.499,252.728,209.937z"/>
		<path fill="#F2F2F2" d="M257.202,219.028c0.489,0.896,0.773,1.215,0.855,1.377l2.767,4.816c0.43,0.74,0.831,1.425,1.21,2.073
			c0.733-3.245,1.349-6.584,1.848-10.017C261.122,217.58,258.888,218.13,257.202,219.028z"/>
		<path fill="#F2F2F2" d="M242.455,268.764c6.785-8.271,12.067-17.763,15.857-28.467c-4.577,2.676-9.352,4.036-14.332,4.036
			c-4.312,0-7.805-1.274-10.476-3.822c-2.671-2.547-4.007-5.867-4.007-9.96c0-7.886,5.601-14.432,16.802-19.636
			c-1.735-4.39-2.603-7.914-2.603-10.57c0-4.011,1.375-7.346,4.129-10.001c2.752-2.656,6.217-3.984,10.395-3.984
			c3.298,0,5.693,0.798,7.2,2.379c-0.891-32.579-10.385-57.835-28.514-75.738c-19.07-18.827-46.134-28.243-81.196-28.243
			c-34.391,0-61.167,9.632-80.331,28.891c-19.164,19.26-28.746,46.278-28.746,81.051c0,35.832,10.95,63.642,32.853,83.429
			c18.538,16.715,43.852,25.072,75.936,25.072c21.708,0,39.769-3.123,54.179-9.366c3.553,3.076,9.798,7.66,18.732,13.762
			c8.933,6.099,17.963,11.358,27.089,15.777l18.156-36.6c-6.341-2.785-11.385-5.233-15.13-7.348
			C255.95,277.985,250.619,274.432,242.455,268.764z M192.455,235.334c-2.593-1.632-4.996-3.217-7.205-4.755
			c-9.319-6.531-15.586-10.565-18.804-12.103c-3.219-1.536-7.709-2.832-13.473-3.891l-10.23,23.487
			c11.816,4.708,20.461,9.704,25.937,14.986c-3.939,0.863-8.119,1.296-12.536,1.296c-13.738,0-24.545-4.657-32.42-13.977
			c-7.878-9.316-11.816-25.504-11.816-48.558c0-19.788,4.035-34.342,12.104-43.66c8.069-9.317,18.588-13.977,31.556-13.977
			c13.927,0,24.855,4.563,32.781,13.688c7.925,9.127,11.887,24.352,11.887,45.678C200.236,212.088,197.642,226.018,192.455,235.334z
			"/>
		<path fill="#F2F2F2" d="M247.317,212.459c-7.079,3.438-10.618,8.593-10.618,15.467c0,3.733,1.232,6.806,3.701,9.215
			c2.468,2.408,5.602,3.612,9.398,3.612c3.128,0,6.256-1.035,9.386-3.081c0.262-0.807,0.525-1.613,0.772-2.434l-0.068-0.094
			c-4.396-6.206-8.354-13.252-11.881-21.14L247.317,212.459z"/>
	</g>
	<g>
		<path fill="#F2F2F2" d="M271.361,217.987h-1.18c-0.71,0-1.395,0.108-2.06,0.126c-0.754,5.272-1.776,10.392-3.063,15.25
			c0.065,0.097,0.138,0.128,0.2,0.214C268.894,228.34,270.928,222.987,271.361,217.987z"/>
		<path fill="#F2F2F2" d="M337.965,181.987h-68.67c0.286,5,0.438,8.505,0.438,12.804c0,6.187-0.319,12.06-0.923,17.799
			c2.039-0.334,4.233-0.603,6.618-0.603h5.575l2.928,0.055c4.801,0,8.218-0.536,10.252-1.714c2.034-1.181,3.053-3.147,3.053-5.94
			c0-1.628-0.802-3.244-2.4-4.872l4.515-4.55c1.14,1.521,1.709,3.571,1.709,5.907c0,5.163-2.189,9.3-6.569,12.371
			c-4.382,3.071-10.232,4.744-17.555,4.744h-0.733c-1.384,6-4.639,11.947-9.764,17.079c2.738,3.819,5.275,5.54,7.607,5.54
			c1.871,0,3.825-1.384,5.859-4.205c0.434,0.38,0.65,0.84,0.65,1.355c0,1.411-1.159,3.064-3.479,4.95
			c-2.319,1.885-4.347,2.83-6.081,2.83c-2.289,0-4.95-1.747-7.98-5.217c-3.581,10.796-8.578,20.452-14.994,28.873
			c6.581,4.54,10.996,7.526,13.142,8.764c3.613,2.04,8.613,4.498,14.837,7.23l2.894,1.289l-20.89,42.114l-2.689-1.297
			c-9.211-4.461-18.455-9.844-27.475-16.001c-2.779-1.898-5.271-4.002-7.52-5.598l-32.948,87.293h66.647l10.295-33h74.106l10.568,33
			h68.353L337.965,181.987z M278.491,313.987l23.072-75.938l23.315,75.938H278.491z"/>
	</g>
</g>
<path fill="#2F344F" d="M248.987,497.975c-66.507,0-129.033-25.899-176.061-72.927S0,315.494,0,248.987
	S25.899,119.954,72.927,72.927S182.48,0,248.987,0c66.508,0,129.034,25.899,176.062,72.927
	c47.027,47.027,72.927,109.554,72.927,176.061s-25.899,129.033-72.927,176.061S315.495,497.975,248.987,497.975z M248.987,12
	c-63.302,0-122.814,24.651-167.575,69.412C36.651,126.173,12,185.686,12,248.987s24.651,122.814,69.412,167.575
	c44.761,44.761,104.273,69.412,167.575,69.412s122.815-24.651,167.576-69.412s69.412-104.273,69.412-167.575
	s-24.651-122.814-69.412-167.575C371.803,36.651,312.289,12,248.987,12z"/>
</svg>
