<?xml version="1.0" encoding="utf-8"?>
<!-- Generator: Adobe Illustrator 16.0.4, SVG Export Plug-In . SVG Version: 6.00 Build 0)  -->
<!DOCTYPE svg PUBLIC "-//W3C//DTD SVG 1.1//EN" "http://www.w3.org/Graphics/SVG/1.1/DTD/svg11.dtd">
<svg version="1.1" id="Layer_1" xmlns="http://www.w3.org/2000/svg" xmlns:xlink="http://www.w3.org/1999/xlink" x="0px" y="0px"
	 width="497.976px" height="497.975px" viewBox="0 0 497.976 497.975" enable-background="new 0 0 497.976 497.975"
	 xml:space="preserve">
<circle fill="#D4145A" cx="1458.021" cy="236.987" r="196"/>
<rect x="722.021" y="64.987" fill="#F2F2F2" width="367" height="368"/>
<path fill="#D4145A" d="M913.86,245.461c5.928,4.117,9.8,6.698,11.615,7.745c2.721,1.535,6.383,3.312,10.986,5.336l-13.184,26.578
	c-6.629-3.209-13.186-7.027-19.674-11.457c-6.487-4.432-11.023-7.76-13.604-9.994c-10.463,4.535-23.58,6.803-39.345,6.803
	c-23.301,0-41.684-6.07-55.146-18.209c-15.905-14.37-23.858-34.565-23.858-60.587c0-25.253,6.959-44.874,20.877-58.861
	c13.916-13.986,33.362-20.98,58.338-20.98c25.461,0,45.116,6.838,58.965,20.51c13.848,13.674,20.771,33.242,20.771,58.704
	C930.603,213.721,925.021,231.858,913.86,245.461z M877.55,221.185c3.767-6.766,5.65-16.881,5.65-30.346
	c0-15.487-2.878-26.543-8.633-33.171c-5.756-6.626-13.692-9.941-23.807-9.941c-9.418,0-17.057,3.385-22.916,10.15
	c-5.86,6.767-8.791,17.336-8.791,31.707c0,16.743,2.86,28.499,8.581,35.264c5.72,6.768,13.567,10.15,23.544,10.15
	c3.209,0,6.243-0.314,9.104-0.942c-3.977-3.836-10.255-7.464-18.835-10.883l7.43-17.057c4.186,0.769,7.445,1.71,9.783,2.825
	c2.336,1.117,6.889,4.047,13.656,8.79C873.921,218.848,875.665,220,877.55,221.185z"/>
<g>
	<path fill="#D4145A" d="M987.021,196.987v11h1.229c1.277,0,2.187-0.001,2.726-0.285c0.54-0.283,0.963-0.708,1.269-1.414
		s0.459-1.816,0.459-3.399c0-2.096-0.342-3.75-1.025-4.523c-0.684-0.773-1.817-1.379-3.4-1.379H987.021z"/>
	<path fill="#D4145A" d="M998.818,203.593c-0.056,1.727-0.281,3.118-0.699,4.129c-0.48,1.165-1.148,2.141-2.003,2.928
		c-0.855,0.788-1.772,1.425-2.753,1.686c-1.341,0.359-2.555,0.652-3.644,0.652h-8.699v-20h8.699c1.79,0,3.236,0.239,4.339,0.726
		c0.491,0.216,0.938,0.479,1.353,0.78l-1.312-3.505h-51.706l-0.748,2h6.518l7.433,20h-6.4l-0.989-3h-6.939l-0.965,3h-6.08
		l-12.721,33.784c2.834,1.92,4.833,3.204,5.955,3.852c2.586,1.459,6.193,3.201,10.695,5.181l2.877,1.259l-15.9,32.055l-2.675-1.296
		c-4.538-2.197-9.084-4.491-13.581-7.266l-24.137,64.432h48.4l7.478-26h53.816l7.675,26h49.64L998.818,203.593z M958.021,192.987
		h5.268l7.732,10.937v-10.937h5v20h-5.284l-7.716-11.087v11.087h-5V192.987z M950.909,285.987l16.755-55.147l16.933,55.147H950.909z
		"/>
	<polygon fill="#D4145A" points="942.594,204.987 946.938,204.987 944.754,197.876 	"/>
</g>
<path fill="#F2F2F2" d="M1457.86,245.461c5.928,4.117,9.8,6.698,11.615,7.745c2.721,1.535,6.383,3.312,10.986,5.336l-13.184,26.578
	c-6.629-3.209-13.186-7.027-19.674-11.457c-6.487-4.432-11.023-7.76-13.604-9.994c-10.463,4.535-23.58,6.803-39.345,6.803
	c-23.301,0-41.684-6.07-55.146-18.209c-15.905-14.37-23.858-34.565-23.858-60.587c0-25.253,6.959-44.874,20.877-58.861
	c13.916-13.986,33.362-20.98,58.338-20.98c25.461,0,45.116,6.838,58.965,20.51c13.848,13.674,20.771,33.242,20.771,58.704
	C1474.603,213.721,1469.021,231.858,1457.86,245.461z M1421.55,221.185c3.767-6.766,5.65-16.881,5.65-30.346
	c0-15.487-2.878-26.543-8.633-33.171c-5.756-6.626-13.692-9.941-23.807-9.941c-9.418,0-17.057,3.385-22.916,10.15
	c-5.86,6.767-8.791,17.336-8.791,31.707c0,16.743,2.86,28.499,8.581,35.264c5.72,6.768,13.567,10.15,23.544,10.15
	c3.209,0,6.243-0.314,9.104-0.942c-3.977-3.836-10.255-7.464-18.835-10.883l7.43-17.057c4.186,0.769,7.445,1.71,9.783,2.825
	c2.336,1.117,6.889,4.047,13.656,8.79C1417.921,218.848,1419.665,220,1421.55,221.185z"/>
<g>
	<path fill="#F2F2F2" d="M1531.021,196.987v11h1.229c1.277,0,2.187-0.001,2.726-0.285c0.54-0.283,0.963-0.708,1.269-1.414
		s0.459-1.816,0.459-3.399c0-2.096-0.342-3.75-1.025-4.523c-0.684-0.773-1.817-1.379-3.4-1.379H1531.021z"/>
	<path fill="#F2F2F2" d="M1542.818,203.593c-0.056,1.727-0.281,3.118-0.699,4.129c-0.48,1.165-1.148,2.141-2.003,2.928
		c-0.855,0.788-1.772,1.425-2.753,1.686c-1.341,0.359-2.555,0.652-3.644,0.652h-8.699v-20h8.699c1.79,0,3.236,0.239,4.339,0.726
		c0.491,0.216,0.938,0.479,1.353,0.78l-1.312-3.505h-51.706l-0.748,2h6.518l7.433,20h-6.4l-0.989-3h-6.939l-0.965,3h-6.08
		l-12.721,33.784c2.834,1.92,4.833,3.204,5.955,3.852c2.586,1.459,6.193,3.201,10.695,5.181l2.877,1.259l-15.9,32.055l-2.675-1.296
		c-4.538-2.197-9.084-4.491-13.581-7.266l-24.137,64.432h48.4l7.478-26h53.816l7.675,26h49.64L1542.818,203.593z M1502.021,192.987
		h5.268l7.732,10.937v-10.937h5v20h-5.284l-7.716-11.087v11.087h-5V192.987z M1494.909,285.987l16.755-55.147l16.933,55.147
		H1494.909z"/>
	<polygon fill="#F2F2F2" points="1486.594,204.987 1490.938,204.987 1488.754,197.876 	"/>
</g>
<text transform="matrix(1 0 0 1 1215.6299 751.8809)" font-family="'TrajanPro-Regular'" font-size="267.6838">QA</text>
<text transform="matrix(-4.371139e-08 -1 1 -4.371139e-08 1357.5527 722.5488)" font-family="'TrajanPro-Regular'" font-size="59.2803">AND</text>
<circle fill="#2F344F" cx="248.987" cy="248.987" r="230.988"/>
<g>
	<g>
		<path fill="#F2F2F2" d="M268.13,207.418c-3.417,0-5.125,2.134-5.125,6.4c0,2.291,0.888,5.593,2.664,9.904
			c5.281-3.1,7.922-6.637,7.922-10.611c0-1.55-0.539-2.886-1.618-4.009S269.612,207.418,268.13,207.418z"/>
		<path fill="#F2F2F2" d="M266.174,224.934c0.247,0.54,0.394,0.863,0.438,0.976l0.91,1.851c0.764,1.572,1.337,2.69,1.719,3.364
			c1.738-1.824,3.971-3.177,6.681-4.069c0.378-3.382,0.64-6.859,0.759-10.451C274.815,219.308,271.319,222.084,266.174,224.934z"/>
		<path fill="#F2F2F2" d="M269.882,232.467c0.405,0.742,0.641,1.007,0.709,1.142l2.292,3.991c0.356,0.613,0.688,1.181,1.003,1.718
			c0.607-2.688,1.117-5.456,1.531-8.301C273.13,231.267,271.278,231.723,269.882,232.467z"/>
		<path fill="#F2F2F2" d="M257.661,273.68c5.623-6.854,10-14.719,13.141-23.589c-3.793,2.218-7.749,3.345-11.876,3.345
			c-3.573,0-6.468-1.056-8.681-3.167c-2.214-2.111-3.321-4.862-3.321-8.254c0-6.535,4.641-11.959,13.923-16.271
			c-1.438-3.638-2.157-6.558-2.157-8.759c0-3.323,1.14-6.087,3.422-8.287c2.28-2.201,5.151-3.302,8.613-3.302
			c2.732,0,4.718,0.661,5.967,1.972c-0.738-26.996-8.605-47.925-23.628-62.76c-15.802-15.601-38.229-23.403-67.283-23.403
			c-28.498,0-50.686,7.981-66.566,23.94c-15.88,15.96-23.82,38.349-23.82,67.163c0,29.691,9.074,52.736,27.223,69.133
			c15.362,13.851,36.337,20.776,62.924,20.776c17.989,0,32.955-2.588,44.895-7.762c2.944,2.549,8.119,6.348,15.522,11.403
			c7.402,5.054,14.885,9.412,22.447,13.074l15.045-30.328c-5.254-2.308-9.434-4.337-12.537-6.089
			C268.844,281.321,264.427,278.377,257.661,273.68z M216.229,245.979c-2.149-1.353-4.14-2.666-5.97-3.94
			c-7.722-5.412-12.916-8.755-15.582-10.029c-2.668-1.272-6.388-2.347-11.164-3.224l-8.478,19.462
			c9.791,3.901,16.955,8.041,21.492,12.418c-3.265,0.716-6.728,1.074-10.388,1.074c-11.384,0-20.339-3.859-26.865-11.582
			c-6.528-7.72-9.791-21.134-9.791-40.237c0-16.397,3.343-28.457,10.03-36.179c6.687-7.721,15.403-11.582,26.149-11.582
			c11.541,0,20.597,3.781,27.164,11.343c6.567,7.563,9.851,20.179,9.851,37.851C222.677,226.716,220.527,238.259,216.229,245.979z"
			/>
		<path fill="#F2F2F2" d="M261.69,227.023c-5.866,2.849-8.799,7.12-8.799,12.816c0,3.094,1.021,5.64,3.067,7.636
			c2.045,1.995,4.642,2.993,7.788,2.993c2.592,0,5.184-0.857,7.777-2.553c0.217-0.669,0.436-1.337,0.64-2.017l-0.057-0.078
			c-3.642-5.143-6.923-10.981-9.845-17.518L261.69,227.023z"/>
	</g>
	<g>
		<path fill="#F2F2F2" d="M281.614,231.987h-0.978c-0.588,0-1.155-0.102-1.706-0.087c-0.625,4.369-1.473,8.516-2.539,12.541
			c0.055,0.08,0.114,0.25,0.166,0.321C279.569,240.422,281.255,235.987,281.614,231.987z"/>
		<path fill="#F2F2F2" d="M336.806,201.987h-56.903c0.237,4,0.363,6.94,0.363,10.503c0,5.127-0.265,10.117-0.765,14.873
			c1.689-0.277,3.508-0.376,5.484-0.376h4.619l2.427-0.132c3.978,0,6.81-0.533,8.495-1.51c1.686-0.979,2.529-2.652,2.529-4.966
			c0-1.349-0.664-2.71-1.989-4.059l3.741-3.782c0.944,1.261,1.416,2.954,1.416,4.889c0,4.278-1.814,7.896-5.443,10.439
			c-3.631,2.545-8.479,4.12-14.547,4.12h-0.607c-1.146,5-3.844,9.709-8.091,13.961c2.27,3.165,4.371,4.495,6.304,4.495
			c1.551,0,3.17-1.195,4.855-3.533c0.359,0.315,0.539,0.672,0.539,1.099c0,1.169-0.961,2.527-2.883,4.09
			c-1.922,1.562-3.602,2.339-5.039,2.339c-1.896,0-4.102-1.45-6.612-4.325c-2.968,8.945-7.108,16.945-12.425,23.924
			c5.453,3.762,9.111,6.235,10.89,7.261c2.994,1.69,7.137,3.727,12.294,5.991l2.398,1.067l-17.311,34.898l-2.229-1.075
			c-7.633-3.696-15.293-8.156-22.767-13.259c-2.303-1.573-4.368-3.131-6.231-4.453l-27.302,72.52h55.227l8.531-28h61.408l8.757,28
			h56.641L336.806,201.987z M287.522,310.987l19.119-62.925l19.32,62.925H287.522z"/>
	</g>
</g>
<path fill="#2F344F" d="M248.987,497.975c-66.507,0-129.033-25.899-176.061-72.927S0,315.494,0,248.987
	S25.899,119.954,72.927,72.927S182.48,0,248.987,0c66.508,0,129.034,25.899,176.062,72.927
	c47.027,47.027,72.927,109.554,72.927,176.061s-25.899,129.033-72.927,176.061S315.495,497.975,248.987,497.975z M248.987,12
	c-63.302,0-122.814,24.651-167.575,69.412C36.651,126.173,12,185.686,12,248.987s24.651,122.814,69.412,167.575
	c44.761,44.761,104.273,69.412,167.575,69.412s122.815-24.651,167.576-69.412s69.412-104.273,69.412-167.575
	s-24.651-122.814-69.412-167.575C371.803,36.651,312.289,12,248.987,12z"/>
</svg>
